<svg xmlns="http://www.w3.org/2000/svg" id="svg1" width="16" height="16" viewBox="0 0 16 16"><g id="layer1"><path id="rect1" d="M5 0h1v1H5z" style="fill:#737373;fill-opacity:1;stroke:none;stroke-width:5"/><path id="rect1-8" d="M6 0h1v1H6z" style="fill:#737373;fill-opacity:1;stroke:none;stroke-width:5"/><path id="rect1-7" d="M7 0h1v1H7z" style="fill:#737373;fill-opacity:1;stroke:none;stroke-width:5"/><path id="rect1-9" d="M8 0h1v1H8z" style="fill:#737373;fill-opacity:1;stroke:none;stroke-width:5"/><path id="rect1-5" d="M9 0h1v1H9z" style="fill:#737373;fill-opacity:1;stroke:none;stroke-width:5"/><path id="rect1-5-8" d="M10 2h1v1h-1z" style="fill:#737373;fill-opacity:1;stroke:none;stroke-width:5"/><path id="rect1-5-3" d="M11 3h1v1h-1z" style="fill:#737373;fill-opacity:1;stroke:none;stroke-width:5"/><path id="rect1-5-0" d="M12 4h1v1h-1z" style="fill:#737373;fill-opacity:1;stroke:none;stroke-width:5"/><path id="rect1-5-81" d="M13 5h1v1h-1z" style="fill:#737373;fill-opacity:1;stroke:none;stroke-width:5"/><path id="rect1-5-9" d="M13 6h1v1h-1z" style="fill:#737373;fill-opacity:1;stroke:none;stroke-width:5"/><path id="rect1-5-32" d="M13 7h1v1h-1z" style="fill:#737373;fill-opacity:1;stroke:none;stroke-width:5"/><path id="rect1-5-88" d="M13 8h1v1h-1z" style="fill:#737373;fill-opacity:1;stroke:none;stroke-width:5"/><path id="rect1-5-5" d="M13 9h1v1h-1z" style="fill:#737373;fill-opacity:1;stroke:none;stroke-width:5"/><path id="rect1-5-09" d="M13 10h1v1h-1z" style="fill:#737373;fill-opacity:1;stroke:none;stroke-width:5"/><path id="rect1-5-1" d="M12 11h1v1h-1z" style="fill:#737373;fill-opacity:1;stroke:none;stroke-width:5"/><path id="rect1-5-7" d="M11 12h1v1h-1z" style="fill:#737373;fill-opacity:1;stroke:none;stroke-width:5"/><path id="rect1-5-4" d="M10 13h1v1h-1z" style="fill:#737373;fill-opacity:1;stroke:none;stroke-width:5"/><path id="rect1-5-24" d="M9 13h1v1H9z" style="fill:#737373;fill-opacity:1;stroke:none;stroke-width:5"/><path id="rect1-5-47" d="M8 13h1v1H8z" style="fill:#737373;fill-opacity:1;stroke:none;stroke-width:5"/><path id="rect1-5-90" d="M7 13h1v1H7z" style="fill:#737373;fill-opacity:1;stroke:none;stroke-width:5"/><path id="rect1-5-10" d="M6 13h1v1H6z" style="fill:#737373;fill-opacity:1;stroke:none;stroke-width:5"/><path id="rect1-5-96" d="M5 13h1v1H5z" style="fill:#737373;fill-opacity:1;stroke:none;stroke-width:5"/><path id="rect1-5-38" d="M4 12h1v1H4z" style="fill:#737373;fill-opacity:1;stroke:none;stroke-width:5"/><path id="rect1-5-25" d="M3 11h1v1H3z" style="fill:#737373;fill-opacity:1;stroke:none;stroke-width:5"/><path id="rect1-5-23" d="M6 2h1v1H6z" style="fill:#737373;fill-opacity:1;stroke:none;stroke-width:5"/><path id="rect1-5-6" d="M7 2h1v1H7z" style="fill:#737373;fill-opacity:1;stroke:none;stroke-width:5"/><path id="rect1-5-12" d="M8 2h1v1H8z" style="fill:#737373;fill-opacity:1;stroke:none;stroke-width:5"/><path id="rect1-5-76" d="M9 2h1v1H9z" style="fill:#737373;fill-opacity:1;stroke:none;stroke-width:5"/><path id="rect1-5-94" d="M2 10h1v1H2z" style="fill:#737373;fill-opacity:1;stroke:none;stroke-width:5"/><path id="rect1-5-78" d="M2 9h1v1H2z" style="fill:#737373;fill-opacity:1;stroke:none;stroke-width:5"/><path id="rect1-5-84" d="M2 8h1v1H2z" style="fill:#737373;fill-opacity:1;stroke:none;stroke-width:5"/><path id="rect1-5-17" d="M2 7h1v1H2z" style="fill:#737373;fill-opacity:1;stroke:none;stroke-width:5"/><path id="rect1-5-13" d="M2 6h1v1H2z" style="fill:#737373;fill-opacity:1;stroke:none;stroke-width:5"/><path id="rect1-5-05" d="M2 5h1v1H2z" style="fill:#737373;fill-opacity:1;stroke:none;stroke-width:5"/><path id="rect1-5-842" d="M4 3h1v1H4z" style="fill:#737373;fill-opacity:1;stroke:none;stroke-width:5"/><path id="rect1-5-094" d="M5 2h1v1H5z" style="fill:#737373;fill-opacity:1;stroke:none;stroke-width:5"/><path id="rect1-83" d="M10 0h1v1h-1z" style="fill:#737373;fill-opacity:1;stroke:none;stroke-width:5"/><path id="rect1-6" d="M11 1h1v1h-1z" style="fill:#737373;fill-opacity:1;stroke:none;stroke-width:5"/><path id="rect1-63" d="M12 2h1v1h-1z" style="fill:#737373;fill-opacity:1;stroke:none;stroke-width:5"/><path id="rect1-3" d="M13 3h1v1h-1z" style="fill:#737373;fill-opacity:1;stroke:none;stroke-width:5"/><path id="rect1-81" d="M14 4h1v1h-1z" style="fill:#737373;fill-opacity:1;stroke:none;stroke-width:5"/><path id="rect1-4" d="M15 5h1v1h-1z" style="fill:#737373;fill-opacity:1;stroke:none;stroke-width:5"/><path id="rect1-1" d="M15 6h1v1h-1z" style="fill:#737373;fill-opacity:1;stroke:none;stroke-width:5"/><path id="rect1-2" d="M15 7h1v1h-1z" style="fill:#737373;fill-opacity:1;stroke:none;stroke-width:5"/><path id="rect1-12" d="M15 8h1v1h-1z" style="fill:#737373;fill-opacity:1;stroke:none;stroke-width:5"/><path id="rect1-54" d="M15 9h1v1h-1z" style="fill:#737373;fill-opacity:1;stroke:none;stroke-width:5"/><path id="rect1-22" d="M15 10h1v1h-1z" style="fill:#737373;fill-opacity:1;stroke:none;stroke-width:5"/><path id="rect1-78" d="M14 11h1v1h-1z" style="fill:#737373;fill-opacity:1;stroke:none;stroke-width:5"/><path id="rect1-44" d="M13 12h1v1h-1z" style="fill:#737373;fill-opacity:1;stroke:none;stroke-width:5"/><path id="rect1-66" d="M12 13h1v1h-1z" style="fill:#737373;fill-opacity:1;stroke:none;stroke-width:5"/><path id="rect1-26" d="M11 14h1v1h-1z" style="fill:#737373;fill-opacity:1;stroke:none;stroke-width:5"/><path id="rect1-21" d="M10 15h1v1h-1z" style="fill:#737373;fill-opacity:1;stroke:none;stroke-width:5"/><path id="rect1-28" d="M9 15h1v1H9z" style="fill:#737373;fill-opacity:1;stroke:none;stroke-width:5"/><path id="rect1-60" d="M8 15h1v1H8z" style="fill:#737373;fill-opacity:1;stroke:none;stroke-width:5"/><path id="rect1-93" d="M7 15h1v1H7z" style="fill:#737373;fill-opacity:1;stroke:none;stroke-width:5"/><path id="rect1-16" d="M6 15h1v1H6z" style="fill:#737373;fill-opacity:1;stroke:none;stroke-width:5"/><path id="rect1-17" d="M5 15h1v1H5z" style="fill:#737373;fill-opacity:1;stroke:none;stroke-width:5"/><path id="rect1-58" d="M4 14h1v1H4z" style="fill:#737373;fill-opacity:1;stroke:none;stroke-width:5"/><path id="rect1-31" d="M3 13h1v1H3z" style="fill:#737373;fill-opacity:1;stroke:none;stroke-width:5"/><path id="rect1-92" d="M2 12h1v1H2z" style="fill:#737373;fill-opacity:1;stroke:none;stroke-width:5"/><path id="rect1-73" d="M1 11h1v1H1z" style="fill:#737373;fill-opacity:1;stroke:none;stroke-width:5"/><path id="rect1-0" d="M0 10h1v1H0z" style="fill:#737373;fill-opacity:1;stroke:none;stroke-width:5"/><path id="rect1-02" d="M0 9h1v1H0z" style="fill:#737373;fill-opacity:1;stroke:none;stroke-width:5"/><path id="rect1-739" d="M0 8h1v1H0z" style="fill:#737373;fill-opacity:1;stroke:none;stroke-width:5"/><path id="rect1-20" d="M0 7h1v1H0z" style="fill:#737373;fill-opacity:1;stroke:none;stroke-width:5"/><path id="rect1-837" d="M0 6h1v1H0z" style="fill:#737373;fill-opacity:1;stroke:none;stroke-width:5"/><path id="rect1-04" d="M0 5h1v1H0z" style="fill:#737373;fill-opacity:1;stroke:none;stroke-width:5"/><path id="rect1-67" d="M1 4h1v1H1z" style="fill:#737373;fill-opacity:1;stroke:none;stroke-width:5"/><path id="rect1-56" d="M2 3h1v1H2z" style="fill:#737373;fill-opacity:1;stroke:none;stroke-width:5"/><path id="rect1-88" d="M3 2h1v1H3z" style="fill:#737373;fill-opacity:1;stroke:none;stroke-width:5"/><path id="rect1-50" d="M4 1h1v1H4z" style="fill:#737373;fill-opacity:1;stroke:none;stroke-width:5"/><path id="rect1-5-97" d="M8 1h1v1H8z" style="fill:#737373;fill-opacity:1;stroke:none;stroke-width:5"/><path id="rect1-5-57" d="M10 1h1v1h-1z" style="fill:#fd9a00;fill-opacity:1;stroke:none;stroke-width:5"/><path id="rect1-5-12-2" d="M10 4h1v1h-1z" style="fill:#737373;fill-opacity:1;stroke:none;stroke-width:5"/><path id="rect1-5-12-8" d="M9 4h1v1H9z" style="fill:#737373;fill-opacity:1;stroke:none;stroke-width:5"/><path id="rect1-5-12-3" d="M8 4h1v1H8z" style="fill:#737373;fill-opacity:1;stroke:none;stroke-width:5"/><path id="rect1-5-12-1" d="M7 4h1v1H7z" style="fill:#737373;fill-opacity:1;stroke:none;stroke-width:5"/><path id="rect1-5-12-30" d="M6 4h1v1H6z" style="fill:#737373;fill-opacity:1;stroke:none;stroke-width:5"/><path id="rect1-5-12-6" d="M5 4h1v1H5z" style="fill:#737373;fill-opacity:1;stroke:none;stroke-width:5"/><path id="rect1-5-12-15" d="M4 6h1v1H4z" style="fill:#737373;fill-opacity:1;stroke:none;stroke-width:5"/><path id="rect1-5-12-23" d="M4 7h1v1H4z" style="fill:#737373;fill-opacity:1;stroke:none;stroke-width:5"/><path id="rect1-5-12-36" d="M4 8h1v1H4z" style="fill:#737373;fill-opacity:1;stroke:none;stroke-width:5"/><path id="rect1-5-12-68" d="M4 9h1v1H4z" style="fill:#737373;fill-opacity:1;stroke:none;stroke-width:5"/><path id="rect1-5-12-29" d="M4 10h1v1H4z" style="fill:#737373;fill-opacity:1;stroke:none;stroke-width:5"/><path id="rect1-5-12-4" d="M5 11h1v1H5z" style="fill:#737373;fill-opacity:1;stroke:none;stroke-width:5"/><path id="rect1-5-12-35" d="M6 11h1v1H6z" style="fill:#737373;fill-opacity:1;stroke:none;stroke-width:5"/><path id="rect1-5-12-85" d="M7 11h1v1H7z" style="fill:#737373;fill-opacity:1;stroke:none;stroke-width:5"/><path id="rect1-5-12-303" d="M8 11h1v1H8z" style="fill:#737373;fill-opacity:1;stroke:none;stroke-width:5"/><path id="rect1-5-12-81" d="M9 11h1v1H9z" style="fill:#737373;fill-opacity:1;stroke:none;stroke-width:5"/><path id="rect1-5-12-92" d="M10 11h1v1h-1z" style="fill:#737373;fill-opacity:1;stroke:none;stroke-width:5"/><path id="rect1-5-12-25" d="M11 10h1v1h-1z" style="fill:#737373;fill-opacity:1;stroke:none;stroke-width:5"/><path id="rect1-5-12-49" d="M11 9h1v1h-1z" style="fill:#737373;fill-opacity:1;stroke:none;stroke-width:5"/><path id="rect1-5-12-17" d="M11 8h1v1h-1z" style="fill:#737373;fill-opacity:1;stroke:none;stroke-width:5"/><path id="rect1-5-12-40" d="M11 7h1v1h-1z" style="fill:#737373;fill-opacity:1;stroke:none;stroke-width:5"/><path id="rect1-5-12-232" d="M11 6h1v1h-1z" style="fill:#737373;fill-opacity:1;stroke:none;stroke-width:5"/><path id="rect1-5-12-490" d="M11 5h1v1h-1z" style="fill:#737373;fill-opacity:1;stroke:none;stroke-width:5"/><path id="rect1-5-12-5" d="M7 6h1v1H7z" style="fill:#737373;fill-opacity:1;stroke:none;stroke-width:5"/><path id="rect1-5-12-171" d="M6 6h1v1H6z" style="fill:#737373;fill-opacity:1;stroke:none;stroke-width:5"/><path id="rect1-5-12-293" d="M8 6h1v1H8z" style="fill:#737373;fill-opacity:1;stroke:none;stroke-width:5"/><path id="rect1-5-12-402" d="M9 6h1v1H9z" style="fill:#737373;fill-opacity:1;stroke:none;stroke-width:5"/><path id="rect1-5-12-0" d="M9 7h1v1H9z" style="fill:#737373;fill-opacity:1;stroke:none;stroke-width:5"/><path id="rect1-5-12-7" d="M9 9h1v1H9z" style="fill:#737373;fill-opacity:1;stroke:none;stroke-width:5"/><path id="rect1-5-12-00" d="M8 9h1v1H8z" style="fill:#737373;fill-opacity:1;stroke:none;stroke-width:5"/><path id="rect1-5-12-87" d="M7 9h1v1H7z" style="fill:#737373;fill-opacity:1;stroke:none;stroke-width:5"/><path id="rect1-5-12-95" d="M6 9h1v1H6z" style="fill:#737373;fill-opacity:1;stroke:none;stroke-width:5"/><path id="rect1-5-12-308" d="M6 8h1v1H6z" style="fill:#737373;fill-opacity:1;stroke:none;stroke-width:5"/><path id="rect1-5-12-24" d="M6 7h1v1H6z" style="fill:#737373;fill-opacity:1;stroke:none;stroke-width:5"/><path id="rect1-5-12-007" d="M10 7h1v1h-1z" style="fill:#737373;fill-opacity:1;stroke:none;stroke-width:5"/><path id="rect1-5-12-32" d="M4 4h1v1H4z" style="fill:#737373;fill-opacity:1;stroke:none;stroke-width:5"/><path id="rect1-5-12-77" d="M5 1h1v1H5z" style="fill:#432dd7;fill-opacity:1;stroke:none;stroke-width:5"/><path id="rect1-5-12-77-9" d="M6 1h1v1H6z" style="fill:#432dd7;fill-opacity:1;stroke:none;stroke-width:5"/><path id="rect1-5-12-77-1" d="M7 1h1v1H7z" style="fill:#432dd7;fill-opacity:1;stroke:none;stroke-width:5"/><path id="rect1-5-12-77-0" d="M9 1h1v1H9z" style="fill:#432dd7;fill-opacity:1;stroke:none;stroke-width:5"/><path id="rect1-5-12-77-7" d="M11 2h1v1h-1z" style="fill:#432dd7;fill-opacity:1;stroke:none;stroke-width:5"/><path id="rect1-5-12-77-98" d="M12 3h1v1h-1z" style="fill:#432dd7;fill-opacity:1;stroke:none;stroke-width:5"/><path id="rect1-5-12-77-5" d="M13 4h1v1h-1z" style="fill:#432dd7;fill-opacity:1;stroke:none;stroke-width:5"/><path id="rect1-5-12-77-8" d="M14 5h1v1h-1z" style="fill:#432dd7;fill-opacity:1;stroke:none;stroke-width:5"/><path id="rect1-5-12-77-4" d="M14 6h1v1h-1z" style="fill:#432dd7;fill-opacity:1;stroke:none;stroke-width:5"/><path id="rect1-5-12-77-6" d="M14 7h1v1h-1z" style="fill:#432dd7;fill-opacity:1;stroke:none;stroke-width:5"/><path id="rect1-5-12-77-57" d="M14 8h1v1h-1z" style="fill:#432dd7;fill-opacity:1;stroke:none;stroke-width:5"/><path id="rect1-5-12-77-3" d="M14 9h1v1h-1z" style="fill:#432dd7;fill-opacity:1;stroke:none;stroke-width:5"/><path id="rect1-5-12-77-49" d="M14 10h1v1h-1z" style="fill:#432dd7;fill-opacity:1;stroke:none;stroke-width:5"/><path id="rect1-5-12-77-33" d="M13 11h1v1h-1z" style="fill:#432dd7;fill-opacity:1;stroke:none;stroke-width:5"/><path id="rect1-5-12-77-48" d="M12 12h1v1h-1z" style="fill:#432dd7;fill-opacity:1;stroke:none;stroke-width:5"/><path id="rect1-5-12-77-97" d="M11 13h1v1h-1z" style="fill:#432dd7;fill-opacity:1;stroke:none;stroke-width:5"/><path id="rect1-5-12-77-89" d="M10 14h1v1h-1z" style="fill:#432dd7;fill-opacity:1;stroke:none;stroke-width:5"/><path id="rect1-5-12-77-14" d="M9 14h1v1H9z" style="fill:#432dd7;fill-opacity:1;stroke:none;stroke-width:5"/><path id="rect1-5-12-77-63" d="M8 14h1v1H8z" style="fill:#432dd7;fill-opacity:1;stroke:none;stroke-width:5"/><path id="rect1-5-12-77-34" d="M7 14h1v1H7z" style="fill:#432dd7;fill-opacity:1;stroke:none;stroke-width:5"/><path id="rect1-5-12-77-01" d="M6 14h1v1H6z" style="fill:#432dd7;fill-opacity:1;stroke:none;stroke-width:5"/><path id="rect1-5-12-77-494" d="M5 14h1v1H5z" style="fill:#432dd7;fill-opacity:1;stroke:none;stroke-width:5"/><path id="rect1-5-12-77-899" d="M4 13h1v1H4z" style="fill:#432dd7;fill-opacity:1;stroke:none;stroke-width:5"/><path id="rect1-5-12-77-56" d="M3 12h1v1H3z" style="fill:#432dd7;fill-opacity:1;stroke:none;stroke-width:5"/><path id="rect1-5-12-77-00" d="M2 11h1v1H2z" style="fill:#432dd7;fill-opacity:1;stroke:none;stroke-width:5"/><path id="rect1-5-12-77-19" d="M1 10h1v1H1z" style="fill:#432dd7;fill-opacity:1;stroke:none;stroke-width:5"/><path id="rect1-5-12-77-06" d="M1 9h1v1H1z" style="fill:#432dd7;fill-opacity:1;stroke:none;stroke-width:5"/><path id="rect1-5-12-77-72" d="M1 8h1v1H1z" style="fill:#432dd7;fill-opacity:1;stroke:none;stroke-width:5"/><path id="rect1-5-12-77-58" d="M1 7h1v1H1z" style="fill:#432dd7;fill-opacity:1;stroke:none;stroke-width:5"/><path id="rect1-5-12-77-55" d="M1 6h1v1H1z" style="fill:#432dd7;fill-opacity:1;stroke:none;stroke-width:5"/><path id="rect1-5-12-77-50" d="M1 5h1v1H1z" style="fill:#432dd7;fill-opacity:1;stroke:none;stroke-width:5"/><path id="rect1-5-12-77-564" d="M2 4h1v1H2z" style="fill:#432dd7;fill-opacity:1;stroke:none;stroke-width:5"/><path id="rect1-5-12-77-061" d="M3 3h1v1H3z" style="fill:#432dd7;fill-opacity:1;stroke:none;stroke-width:5"/><path id="rect1-5-12-77-583" d="M4 2h1v1H4z" style="fill:#432dd7;fill-opacity:1;stroke:none;stroke-width:5"/><path id="rect1-5-12-77-2" d="M5 3h1v1H5z" style="fill:#432dd7;fill-opacity:1;stroke:none;stroke-width:5"/><path id="rect1-5-12-77-631" d="M6 3h1v1H6z" style="fill:#432dd7;fill-opacity:1;stroke:none;stroke-width:5"/><path id="rect1-5-12-77-54" d="M7 3h1v1H7z" style="fill:#432dd7;fill-opacity:1;stroke:none;stroke-width:5"/><path id="rect1-5-12-77-22" d="M8 3h1v1H8z" style="fill:#432dd7;fill-opacity:1;stroke:none;stroke-width:5"/><path id="rect1-5-12-77-28" d="M9 3h1v1H9z" style="fill:#432dd7;fill-opacity:1;stroke:none;stroke-width:5"/><path id="rect1-5-12-77-18" d="M10 3h1v1h-1z" style="fill:#432dd7;fill-opacity:1;stroke:none;stroke-width:5"/><path id="rect1-5-12-77-981" d="M11 4h1v1h-1z" style="fill:#432dd7;fill-opacity:1;stroke:none;stroke-width:5"/><path id="rect1-5-12-77-41" d="M12 5h1v1h-1z" style="fill:#432dd7;fill-opacity:1;stroke:none;stroke-width:5"/><path id="rect1-5-12-77-85" d="M12 6h1v1h-1z" style="fill:#432dd7;fill-opacity:1;stroke:none;stroke-width:5"/><path id="rect1-5-12-77-344" d="M12 6h1v1h-1z" style="fill:#432dd7;fill-opacity:1;stroke:none;stroke-width:5"/><path id="rect1-5-12-77-43" d="M12 7h1v1h-1z" style="fill:#432dd7;fill-opacity:1;stroke:none;stroke-width:5"/><path id="rect1-5-12-77-556" d="M12 8h1v1h-1z" style="fill:#432dd7;fill-opacity:1;stroke:none;stroke-width:5"/><path id="rect1-5-12-77-31" d="M12 9h1v1h-1z" style="fill:#432dd7;fill-opacity:1;stroke:none;stroke-width:5"/><path id="rect1-5-12-77-44" d="M12 10h1v1h-1z" style="fill:#432dd7;fill-opacity:1;stroke:none;stroke-width:5"/><path id="rect1-5-12-77-02" d="M11 11h1v1h-1z" style="fill:#432dd7;fill-opacity:1;stroke:none;stroke-width:5"/><path id="rect1-5-12-77-35" d="M10 12h1v1h-1z" style="fill:#432dd7;fill-opacity:1;stroke:none;stroke-width:5"/><path id="rect1-5-12-77-25" d="M9 12h1v1H9z" style="fill:#432dd7;fill-opacity:1;stroke:none;stroke-width:5"/><path id="rect1-5-12-77-40" d="M8 12h1v1H8z" style="fill:#432dd7;fill-opacity:1;stroke:none;stroke-width:5"/><path id="rect1-5-12-77-402" d="M7 12h1v1H7z" style="fill:#432dd7;fill-opacity:1;stroke:none;stroke-width:5"/><path id="rect1-5-12-77-47" d="M6 12h1v1H6z" style="fill:#432dd7;fill-opacity:1;stroke:none;stroke-width:5"/><path id="rect1-5-12-77-73" d="M5 12h1v1H5z" style="fill:#432dd7;fill-opacity:1;stroke:none;stroke-width:5"/><path id="rect1-5-12-77-09" d="M4 11h1v1H4z" style="fill:#432dd7;fill-opacity:1;stroke:none;stroke-width:5"/><path id="rect1-5-12-77-68" d="M3 10h1v1H3z" style="fill:#432dd7;fill-opacity:1;stroke:none;stroke-width:5"/><path id="rect1-5-12-77-182" d="M3 9h1v1H3z" style="fill:#432dd7;fill-opacity:1;stroke:none;stroke-width:5"/><path id="rect1-5-12-77-69" d="M3 8h1v1H3z" style="fill:#432dd7;fill-opacity:1;stroke:none;stroke-width:5"/><path id="rect1-5-12-77-64" d="M3 7h1v1H3z" style="fill:#432dd7;fill-opacity:1;stroke:none;stroke-width:5"/><path id="rect1-5-12-77-10" d="M3 6h1v1H3z" style="fill:#432dd7;fill-opacity:1;stroke:none;stroke-width:5"/><path id="rect1-5-12-77-314" d="M3 5h1v1H3z" style="fill:#432dd7;fill-opacity:1;stroke:none;stroke-width:5"/><path id="rect1-5-12-77-191" d="M3 4h1v1H3z" style="fill:#432dd7;fill-opacity:1;stroke:none;stroke-width:5"/><path id="rect1-5-12-77-74" d="M4 5h1v1H4z" style="fill:#432dd7;fill-opacity:1;stroke:none;stroke-width:5"/><path id="rect1-5-12-77-103" d="M5 5h1v1H5z" style="fill:#432dd7;fill-opacity:1;stroke:none;stroke-width:5"/><path id="rect1-5-12-77-226" d="M6 5h1v1H6z" style="fill:#432dd7;fill-opacity:1;stroke:none;stroke-width:5"/><path id="rect1-5-12-77-582" d="M7 5h1v1H7z" style="fill:#432dd7;fill-opacity:1;stroke:none;stroke-width:5"/><path id="rect1-5-12-77-721" d="M8 5h1v1H8z" style="fill:#432dd7;fill-opacity:1;stroke:none;stroke-width:5"/><path id="rect1-5-12-77-27" d="M9 5h1v1H9z" style="fill:#432dd7;fill-opacity:1;stroke:none;stroke-width:5"/><path id="rect1-5-12-77-29" d="M10 5h1v1h-1z" style="fill:#432dd7;fill-opacity:1;stroke:none;stroke-width:5"/><path id="rect1-5-12-77-147" d="M10 6h1v1h-1z" style="fill:#432dd7;fill-opacity:1;stroke:none;stroke-width:5"/><path id="rect1-5-12-77-67" d="M5 6h1v1H5z" style="fill:#432dd7;fill-opacity:1;stroke:none;stroke-width:5"/><path id="rect1-5-12-77-62" d="M5 7h1v1H5z" style="fill:#432dd7;fill-opacity:1;stroke:none;stroke-width:5"/><path id="rect1-5-12-77-196" d="M5 8h1v1H5z" style="fill:#432dd7;fill-opacity:1;stroke:none;stroke-width:5"/><path id="rect1-5-12-77-568" d="M5 9h1v1H5z" style="fill:#432dd7;fill-opacity:1;stroke:none;stroke-width:5"/><path id="rect1-5-12-77-091" d="M5 10h1v1H5z" style="fill:#432dd7;fill-opacity:1;stroke:none;stroke-width:5"/><path id="rect1-5-12-77-403" d="M6 10h1v1H6z" style="fill:#432dd7;fill-opacity:1;stroke:none;stroke-width:5"/><path id="rect1-5-12-77-273" d="M7 10h1v1H7z" style="fill:#432dd7;fill-opacity:1;stroke:none;stroke-width:5"/><path id="rect1-5-12-77-736" d="M8 10h1v1H8z" style="fill:#432dd7;fill-opacity:1;stroke:none;stroke-width:5"/><path id="rect1-5-12-77-012" d="M9 10h1v1H9z" style="fill:#432dd7;fill-opacity:1;stroke:none;stroke-width:5"/><path id="rect1-5-12-77-45" d="M10 10h1v1h-1z" style="fill:#432dd7;fill-opacity:1;stroke:none;stroke-width:5"/><path id="rect1-5-12-77-693" d="M10 9h1v1h-1z" style="fill:#432dd7;fill-opacity:1;stroke:none;stroke-width:5"/><path id="rect1-5-12-77-24" d="M10 8h1v1h-1z" style="fill:#432dd7;fill-opacity:1;stroke:none;stroke-width:5"/><path id="rect1-5-12-77-688" d="M9 8h1v1H9z" style="fill:#432dd7;fill-opacity:1;stroke:none;stroke-width:5"/><path id="rect1-5-12-77-46" d="M8 8h1v1H8z" style="fill:#432dd7;fill-opacity:1;stroke:none;stroke-width:5"/><path id="rect1-5-12-77-21" d="M7 8h1v1H7z" style="fill:#432dd7;fill-opacity:1;stroke:none;stroke-width:5"/><path id="rect1-5-12-77-108" d="M7 7h1v1H7z" style="fill:#432dd7;fill-opacity:1;stroke:none;stroke-width:5"/><path id="rect1-5-12-77-77" d="M8 7h1v1H8z" style="fill:#432dd7;fill-opacity:1;stroke:none;stroke-width:5"/></g></svg>